<?xml version="1.0" encoding="UTF-8" standalone="no"?>
<svg
   xmlns:dc="http://purl.org/dc/elements/1.1/"
   xmlns:cc="http://creativecommons.org/ns#"
   xmlns:rdf="http://www.w3.org/1999/02/22-rdf-syntax-ns#"
   xmlns:svg="http://www.w3.org/2000/svg"
   xmlns="http://www.w3.org/2000/svg"
   xmlns:sodipodi="http://sodipodi.sourceforge.net/DTD/sodipodi-0.dtd"
   xmlns:inkscape="http://www.inkscape.org/namespaces/inkscape"
   width="420"
   height="420"
   viewBox="0 0 111.125 111.12501"
   version="1.1"
   id="svg8"
   inkscape:version="1.0.2-2 (e86c870879, 2021-01-15)"
   sodipodi:docname="Hiragana letter A.svg">
  <defs
     id="defs2" />
  <sodipodi:namedview
     id="base"
     pagecolor="#ffffff"
     bordercolor="#666666"
     borderopacity="1.0"
     inkscape:pageopacity="0.0"
     inkscape:pageshadow="2"
     inkscape:zoom="0.98994949"
     inkscape:cx="306.08269"
     inkscape:cy="230.41447"
     inkscape:document-units="px"
     inkscape:current-layer="layer1"
     showgrid="false"
     units="px"
     showguides="true"
     inkscape:guide-bbox="true"
     inkscape:snap-center="true"
     inkscape:snap-object-midpoints="false"
     inkscape:window-width="1366"
     inkscape:window-height="705"
     inkscape:window-x="-8"
     inkscape:window-y="-8"
     inkscape:window-maximized="1"
     inkscape:document-rotation="0"
     inkscape:snap-bbox="true"
     inkscape:bbox-paths="true"
     inkscape:bbox-nodes="true" />
  <metadata
     id="metadata5">
    <rdf:RDF>
      <cc:Work
         rdf:about="">
        <dc:format>image/svg+xml</dc:format>
        <dc:type
           rdf:resource="http://purl.org/dc/dcmitype/StillImage" />
        <dc:title />
      </cc:Work>
    </rdf:RDF>
  </metadata>
  <g
     inkscape:label="Layer 1"
     inkscape:groupmode="layer"
     id="layer1"
     transform="translate(0,-185.87499)">
    <path
       d="m 45.667117,244.34791 c 0,-1.69333 0.105833,-3.49249 0.211666,-5.39749 6.138314,-2.85749 11.747463,-4.33915 18.309109,-4.55082 -2.963324,6.87915 -9.842469,16.40412 -16.615781,23.60076 -1.05833,-3.49249 -1.904994,-7.83164 -1.904994,-13.65245 z m -21.378266,27.41074 c -2.539992,0 -3.598322,-1.16416 -3.598322,-4.02165 0,-7.30248 7.937475,-18.52078 20.002437,-26.03492 -0.105833,1.37583 -0.105833,2.64583 -0.105833,3.91582 0,5.60915 0.634998,12.06496 1.904994,17.35661 -5.820815,4.86832 -12.911626,8.78414 -18.203276,8.78414 z M 59.848739,225.0863 c 3.915821,2.11666 5.609149,3.49249 5.29165,6.13831 -6.984978,0.10584 -13.652457,1.5875 -18.838274,3.59833 0.529165,-4.44499 1.375829,-9.20747 2.222493,-13.44079 11.429964,-1.79917 23.918258,-5.50332 28.363244,-7.40831 1.904994,-0.84667 2.434159,-1.69333 2.434159,-3.06916 0,-1.79916 -2.010827,-2.96333 -5.609149,-2.96333 -1.904994,0 -9.313304,4.97416 -23.918258,7.83165 0.423332,-1.79916 0.740831,-3.38666 1.164163,-4.65666 0.952497,-3.70415 2.857491,-4.02165 2.857491,-6.24414 0,-2.01083 -5.397483,-5.60915 -11.429964,-5.60915 -1.269996,0 -3.492489,0.52916 -5.29165,0.9525 l -0.105833,2.22249 c 2.222493,0.21166 4.339153,0.52916 6.244147,1.16416 1.481662,0.635 1.904994,1.05833 1.904994,2.85749 0,1.79916 -0.529165,5.60915 -1.269996,10.2658 -3.17499,0.42334 -6.455813,0.635 -9.736636,0.635 -5.29165,0 -8.678306,-0.84666 -14.287455,-5.39748 l -1.693328,1.69333 c 4.550819,6.98497 8.360807,8.9958 15.239952,8.9958 3.069157,0 6.455813,-0.21166 9.630803,-0.52916 -0.740831,4.86831 -1.481662,10.15996 -2.010827,15.13412 -12.170795,6.34998 -26.034918,18.9441 -26.034918,32.80823 0,5.60914 2.645825,8.25497 7.40831,8.25497 6.34998,0 14.075789,-3.49249 21.695765,-10.05414 1.269996,3.17499 2.963324,5.29165 4.868318,5.29165 1.799161,0 3.17499,-0.84666 3.17499,-2.85749 0,-2.22249 -1.269996,-4.55082 -2.645825,-7.61997 8.784139,-8.99581 16.509948,-20.10827 20.319936,-28.36325 11.959129,1.5875 19.04994,10.37164 19.04994,20.53161 0,16.50994 -15.980783,26.03491 -41.804035,29.42157 l 0.423332,2.32833 c 27.622413,-0.635 48.68318,-9.84247 48.68318,-29.84491 0,-11.8533 -8.995805,-23.70659 -25.188254,-25.61159 0.317499,-1.48166 0.105833,-2.53999 -0.846664,-3.70415 -2.11666,-2.32833 -5.397483,-3.59832 -9.207471,-4.55082 z"
       style="font-style:normal;font-variant:normal;font-weight:normal;font-stretch:normal;font-size:105.833px;line-height:100%;font-family:'Noto Serif CJK JP';-inkscape-font-specification:'Noto Serif CJK JP';text-align:center;letter-spacing:0px;word-spacing:0px;text-anchor:middle;fill:#000000;fill-opacity:1;stroke:none;stroke-width:0.264583px;stroke-linecap:butt;stroke-linejoin:miter;stroke-opacity:1"
       id="path9" />
  </g>
</svg>
