<?xml version="1.0" encoding="UTF-8" standalone="no"?>
<svg
   xmlns:dc="http://purl.org/dc/elements/1.1/"
   xmlns:cc="http://creativecommons.org/ns#"
   xmlns:rdf="http://www.w3.org/1999/02/22-rdf-syntax-ns#"
   xmlns:svg="http://www.w3.org/2000/svg"
   xmlns="http://www.w3.org/2000/svg"
   xmlns:sodipodi="http://sodipodi.sourceforge.net/DTD/sodipodi-0.dtd"
   xmlns:inkscape="http://www.inkscape.org/namespaces/inkscape"
   width="420"
   height="420"
   viewBox="0 0 111.125 111.12501"
   version="1.1"
   id="svg8"
   inkscape:version="1.0.2-2 (e86c870879, 2021-01-15)"
   sodipodi:docname="Hiragana letter I.svg">
  <defs
     id="defs2" />
  <sodipodi:namedview
     id="base"
     pagecolor="#ffffff"
     bordercolor="#666666"
     borderopacity="1.0"
     inkscape:pageopacity="0.0"
     inkscape:pageshadow="2"
     inkscape:zoom="0.98994949"
     inkscape:cx="345.76714"
     inkscape:cy="230.41447"
     inkscape:document-units="px"
     inkscape:current-layer="layer1"
     showgrid="false"
     units="px"
     showguides="true"
     inkscape:guide-bbox="true"
     inkscape:snap-center="true"
     inkscape:snap-object-midpoints="false"
     inkscape:window-width="1366"
     inkscape:window-height="705"
     inkscape:window-x="-8"
     inkscape:window-y="-8"
     inkscape:window-maximized="1"
     inkscape:document-rotation="0"
     inkscape:snap-bbox="true"
     inkscape:bbox-paths="true"
     inkscape:bbox-nodes="true" />
  <metadata
     id="metadata5">
    <rdf:RDF>
      <cc:Work
         rdf:about="">
        <dc:format>image/svg+xml</dc:format>
        <dc:type
           rdf:resource="http://purl.org/dc/dcmitype/StillImage" />
        <dc:title />
      </cc:Work>
    </rdf:RDF>
  </metadata>
  <g
     inkscape:label="Layer 1"
     inkscape:groupmode="layer"
     id="layer1"
     transform="translate(0,-185.87499)">
    <path
       d="m 19.579282,245.40624 c 0.317499,20.2141 11.324131,29.42157 19.579105,33.01989 4.339153,1.79916 7.196644,0.10584 7.196644,-2.75166 0,-2.22249 -1.693328,-2.75165 -0.740831,-7.51414 0.634998,-3.28082 4.021654,-12.17079 6.455813,-19.15577 l -2.751658,-1.27 c -3.069157,6.56165 -6.667479,14.39329 -9.948302,19.36744 -0.952497,1.37583 -2.11666,1.5875 -3.704155,0.74083 -4.444986,-2.32832 -10.5833,-9.20747 -10.5833,-22.64826 0,-10.9008 3.598322,-17.56828 3.598322,-22.22493 0,-4.33915 -5.503316,-9.10164 -9.313304,-10.9008 -2.010827,-0.84666 -4.127487,-1.26999 -6.667479,-1.69333 l -0.952497,1.69333 c 7.514143,5.29165 8.254974,7.93748 8.254974,13.65246 0,4.76248 -0.634998,12.06496 -0.423332,19.68494 z m 66.145625,-9.52497 c 4.444986,7.51414 5.29165,16.50994 6.032481,21.1666 0.423332,2.43416 1.693328,3.70415 3.386656,3.70415 2.857491,0 4.23332,-1.79916 4.23332,-5.92665 0,-7.09081 -3.17499,-17.56827 -9.207471,-23.81242 -4.762485,-4.97415 -9.948302,-8.67831 -19.896604,-10.47747 l -0.952497,2.53999 c 6.984978,2.64583 12.69996,6.56165 16.404115,12.8058 z"
       style="font-style:normal;font-variant:normal;font-weight:normal;font-stretch:normal;font-size:105.833px;line-height:100%;font-family:'Noto Serif CJK JP';-inkscape-font-specification:'Noto Serif CJK JP';text-align:center;letter-spacing:0px;word-spacing:0px;text-anchor:middle;fill:#000000;fill-opacity:1;stroke:none;stroke-width:0.264583px;stroke-linecap:butt;stroke-linejoin:miter;stroke-opacity:1"
       id="path9" />
  </g>
</svg>
